<?xml version="1.0" standalone="no"?>
<!DOCTYPE svg PUBLIC "-//W3C//DTD SVG 20010904//EN"
 "http://www.w3.org/TR/2001/REC-SVG-20010904/DTD/svg10.dtd">
<svg version="1.0" xmlns="http://www.w3.org/2000/svg"
 width="138.000000pt" height="138.000000pt" viewBox="0 0 138.000000 138.000000"
 preserveAspectRatio="xMidYMid meet">
<metadata>
Created by potrace 1.14, written by Peter Selinger 2001-2017
</metadata>
<g transform="translate(0.000000,138.000000) scale(0.100000,-0.100000)"
fill="#000000" stroke="none">
<path d="M521 1371 c-10 -6 -12 -21 -7 -54 7 -47 -1 -57 -43 -57 -9 0 -25 -6
-36 -14 -16 -12 -17 -18 -6 -62 19 -76 51 -143 72 -149 10 -4 19 -14 19 -23 0
-13 -9 -17 -42 -17 -37 0 -44 -4 -57 -30 -8 -16 -16 -49 -16 -71 -1 -37 -9
-50 -73 -120 -39 -43 -85 -106 -102 -140 -100 -195 -10 -329 276 -412 106 -31
102 -26 90 -96 -6 -34 18 -87 46 -105 51 -32 95 -18 128 41 19 34 21 45 11 81
-5 23 -7 45 -3 48 4 4 49 18 101 33 263 74 360 202 287 378 -27 65 -66 120
-147 201 -31 31 -53 60 -48 62 11 8 2 70 -16 105 -13 25 -22 29 -62 32 -50 3
-50 3 1 45 19 16 57 120 59 162 2 33 0 35 -49 50 -45 14 -50 18 -43 36 16 40
10 72 -13 79 -35 9 -311 7 -327 -3z"/>
</g>
</svg>
